<svg width="120" height="120" viewBox="0 0 120 120" fill="none" xmlns="http://www.w3.org/2000/svg">
<g id="openmoji:soccer-ball">
<path id="Vector" d="M108.333 60C108.333 62.6833 108.117 65.3167 107.683 67.8833C106.5 75.2 103.65 81.9667 99.5334 87.7833V87.8C92.4667 97.85 81.65 105.083 69.1334 107.467C65.3071 108.197 61.407 108.466 57.5167 108.267H57.4C56.6167 108.217 55.8334 108.167 55.05 108.083C54.9833 108.083 54.9167 108.067 54.85 108.067C54.2 108 53.55 107.917 52.9 107.817C52.7167 107.783 52.5167 107.767 52.3334 107.733C51.8334 107.65 51.35 107.567 50.85 107.467C50.0667 107.317 49.2834 107.15 48.5 106.95C48.1834 106.883 47.85 106.8 47.5334 106.717C47.1 106.6 46.6667 106.467 46.2334 106.333C45.85 106.217 45.45 106.1 45.05 105.967C44.6552 105.851 44.2659 105.718 43.8834 105.567L42.9334 105.217C42.75 105.167 42.5834 105.1 42.4 105.017C40.8682 104.406 39.3664 103.721 37.9 102.967C37.5167 102.767 37.15 102.567 36.7667 102.35C36.3334 102.117 35.9167 101.883 35.5 101.633C35.0334 101.35 34.5667 101.083 34.1 100.783C33.9667 100.7 33.8334 100.6 33.7 100.517C33.05 100.1 32.4 99.65 31.7834 99.2C31.25 98.8333 30.7334 98.4333 30.2334 98.05C30.1849 98.016 30.1402 97.9768 30.1 97.9333C29.65 97.5833 29.2167 97.2333 28.8 96.8667C28.5834 96.7 28.3667 96.5167 28.1667 96.3333L27.6834 95.9C27.65 95.8833 27.6334 95.8667 27.6167 95.85C27.5667 95.8 27.5167 95.75 27.4667 95.7167C27.4334 95.7 27.4167 95.6667 27.4 95.65C27.3704 95.6366 27.3467 95.6129 27.3334 95.5833C27.12 95.4031 26.9142 95.2141 26.7167 95.0167C26.5 94.8167 26.3 94.6333 26.1167 94.4333C26.0834 94.4 26.05 94.3667 26.0334 94.3333C25.8667 94.1667 25.7 94.0167 25.5334 93.8667C25.28 93.6133 25.0467 93.33 24.8 93.0667L24.7667 93.0333L24.77 93.035C24.2134 92.445 23.6534 91.86 23.1167 91.2333C22.7167 90.7667 22.3167 90.2833 21.9334 89.7833C16.8888 83.3558 13.5623 75.7507 12.2667 67.6833C11.8667 65.1833 11.6667 62.6167 11.6667 60C11.6667 49.7167 14.8667 40.1833 20.3667 32.35C25.6834 24.7167 33.1667 18.7 41.9167 15.1833C47.5 12.9 53.6 11.6667 60 11.6667C66.3834 11.6667 72.4834 12.9 78.05 15.1667C82.25 16.8333 86.15 19.1 89.6667 21.8667C90.6 22.5833 91.5167 23.35 92.4 24.1667H92.4167C93.3 24.9667 94.15 25.8 94.9667 26.6667C96.2167 27.95 97.3667 29.3 98.45 30.7333C98.8 31.2 99.1667 31.6833 99.5 32.1667V32.1833C99.5 32.1833 99.5 32.1667 99.5167 32.1833C100.35 33.3333 101.133 34.55 101.833 35.8C102.083 36.2167 102.317 36.6333 102.55 37.0667C102.833 37.5833 103.1 38.0833 103.333 38.6C103.517 38.95 103.683 39.3 103.85 39.6667C104.117 40.2 104.35 40.7333 104.567 41.2667C104.833 41.8667 105.067 42.4667 105.283 43.0833C105.467 43.55 105.633 44.0167 105.783 44.5C105.917 44.8833 106.05 45.2833 106.183 45.7C106.35 46.2333 106.5 46.7667 106.65 47.3C106.75 47.6833 106.85 48.05 106.933 48.4333C107.233 49.6167 107.483 50.8 107.667 52.0167C107.733 52.3667 107.783 52.7167 107.833 53.0833C107.917 53.6167 107.983 54.1667 108.033 54.7C108.067 54.9333 108.1 55.1667 108.117 55.3833C108.167 55.9667 108.217 56.55 108.233 57.15C108.267 57.4 108.283 57.6333 108.283 57.8833C108.317 58.5833 108.333 59.2833 108.333 60Z" fill="white"/>
<path id="Vector_2" d="M108.333 60C108.333 62.6833 108.117 65.3167 107.683 67.8833C106.5 75.2 103.65 81.9667 99.5333 87.7833V87.8C92.4667 97.85 81.65 105.083 69.1333 107.467C65.3071 108.197 61.4069 108.466 57.5167 108.267H57.4C56.6167 108.217 55.8333 108.167 55.05 108.083C54.9833 108.083 54.9167 108.067 54.85 108.067C54.2 108 53.55 107.917 52.9 107.817C52.7167 107.783 52.5167 107.767 52.3333 107.733C51.8333 107.65 51.35 107.567 50.85 107.467C50.0667 107.317 49.2833 107.15 48.5 106.95C48.1833 106.883 47.85 106.8 47.5333 106.717C47.1 106.6 46.6667 106.467 46.2333 106.333C45.85 106.217 45.45 106.1 45.05 105.967C44.6551 105.851 44.2658 105.718 43.8833 105.567L42.9333 105.217C42.75 105.167 42.5833 105.1 42.4 105.017C41.75 104.75 41.1 104.483 40.4667 104.2C40.0333 104 39.6 103.8 39.1833 103.6C38.75 103.4 38.3333 103.183 37.9 102.967C37.5167 102.767 37.15 102.567 36.7667 102.35C36.3333 102.117 35.9167 101.883 35.5 101.633C35.0333 101.35 34.5667 101.083 34.1 100.783C33.9667 100.7 33.8333 100.6 33.7 100.517C33.05 100.1 32.4 99.65 31.7833 99.2C31.25 98.8333 30.7333 98.4333 30.2333 98.05C30.1849 98.016 30.1402 97.9768 30.1 97.9333C29.65 97.5833 29.2167 97.2333 28.8 96.8667C28.3286 96.4665 27.8619 96.0609 27.4 95.65C27.3704 95.6366 27.3467 95.6129 27.3333 95.5833C26.9 95.1667 26.45 94.7667 26.0333 94.3333C25.6 93.9 25.1833 93.4667 24.7667 93.0333C31.4167 96.9333 39.1 99.3167 47.3 99.6167C47.9333 99.65 48.5667 99.6667 49.2 99.6667C60.4667 99.6667 70.85 95.8167 79.0667 89.3333C89.05 81.4833 95.8667 69.7833 97.2667 56.4667C97.45 54.7833 97.5333 53.0667 97.5333 51.3333C97.5333 47.8833 97.1667 44.5333 96.4833 41.3V41.2833C94.6659 32.7138 90.5459 24.8022 84.5667 18.4C86.3333 19.45 88.05 20.6167 89.6667 21.8667C90.6 22.6 91.5167 23.3667 92.4 24.1667C92.4 24.1667 92.4 24.15 92.4167 24.1667C93.3 24.9833 94.15 25.8 94.9667 26.6667C96.6 28.3833 98.1333 30.2333 99.5 32.1833C100.333 33.35 101.117 34.55 101.833 35.8C102.083 36.2167 102.317 36.6333 102.55 37.0667C102.833 37.5833 103.1 38.0833 103.333 38.6C103.517 38.95 103.683 39.3 103.85 39.6667C104.117 40.2 104.35 40.7333 104.567 41.2667C104.833 41.8667 105.067 42.4667 105.283 43.0833C105.467 43.55 105.633 44.0167 105.783 44.5C105.917 44.8833 106.05 45.2833 106.183 45.7C106.35 46.2333 106.5 46.7667 106.65 47.3C106.75 47.6833 106.85 48.05 106.933 48.4333C107.233 49.6167 107.483 50.8 107.667 52.0167C107.733 52.3667 107.783 52.7167 107.833 53.0833C107.917 53.6167 107.983 54.1667 108.033 54.7C108.067 54.9333 108.1 55.1667 108.117 55.3833C108.167 55.9667 108.217 56.55 108.233 57.15C108.267 57.4 108.283 57.6333 108.283 57.8833C108.317 58.5833 108.333 59.2833 108.333 60Z" fill="#D0CFCE"/>
<path id="Vector_3" d="M108.333 60C108.333 62.6833 108.117 65.3167 107.683 67.8833C106.5 75.2 103.65 81.9667 99.5334 87.7833V87.8C92.4667 97.85 81.65 105.083 69.1334 107.467C65.3071 108.197 61.407 108.466 57.5167 108.267H57.4C56.6167 108.217 55.8334 108.167 55.05 108.083C54.9834 108.083 54.9167 108.067 54.85 108.067C54.2 108 53.55 107.917 52.9 107.817C52.7167 107.783 52.5167 107.767 52.3334 107.733C51.8334 107.65 51.35 107.567 50.85 107.467C50.0667 107.317 49.2834 107.15 48.5 106.95C48.1834 106.883 47.85 106.8 47.5334 106.717C47.1 106.6 46.6667 106.467 46.2334 106.333C45.85 106.217 45.45 106.1 45.05 105.967C44.6552 105.851 44.2659 105.718 43.8834 105.567L42.9334 105.217C42.75 105.167 42.5834 105.1 42.4 105.017C40.8682 104.406 39.3664 103.721 37.9 102.967C37.5167 102.767 37.15 102.567 36.7667 102.35C36.3334 102.117 35.9167 101.883 35.5 101.633C35.0334 101.35 34.5667 101.083 34.1 100.783C33.9667 100.7 33.8334 100.6 33.7 100.517C33.05 100.1 32.4 99.65 31.7834 99.2C31.25 98.8333 30.7334 98.4333 30.2334 98.05C30.1849 98.016 30.1402 97.9769 30.1 97.9333C29.65 97.5833 29.2167 97.2333 28.8 96.8667C28.5834 96.7 28.3667 96.5167 28.1667 96.3333L27.6834 95.9C27.65 95.8833 27.6334 95.8667 27.6167 95.85C27.5667 95.8 27.5167 95.75 27.4667 95.7167C27.4334 95.7 27.4167 95.6667 27.4 95.65C27.3704 95.6366 27.3467 95.6129 27.3334 95.5833C27.12 95.4031 26.9142 95.2141 26.7167 95.0167C26.5 94.8167 26.3 94.6333 26.1167 94.4333C26.0834 94.4 26.05 94.3667 26.0334 94.3333C25.8667 94.1667 25.7 94.0167 25.5334 93.8667C25.28 93.6133 25.0467 93.33 24.8 93.0667L24.7667 93.0333L24.77 93.035C24.2134 92.445 23.6534 91.86 23.1167 91.2333C22.7167 90.7667 22.3167 90.2833 21.9334 89.7833C16.8888 83.3558 13.5623 75.7507 12.2667 67.6833C11.8667 65.1833 11.6667 62.6167 11.6667 60C11.6667 49.7167 14.8667 40.1833 20.3667 32.35C25.6834 24.7167 33.1667 18.7 41.9167 15.1833C47.5 12.9 53.6 11.6667 60 11.6667C66.3834 11.6667 72.4834 12.9 78.05 15.1667C82.25 16.8333 86.15 19.1 89.6667 21.8667C90.6 22.5833 91.5167 23.35 92.4 24.1667H92.4167C93.3 24.9667 94.15 25.8 94.9667 26.6667C96.2167 27.95 97.3667 29.3 98.45 30.7333C98.8 31.2 99.1667 31.6833 99.5 32.1667V32.1833C99.5 32.1833 99.5 32.1667 99.5167 32.1833C100.35 33.3333 101.133 34.55 101.833 35.8C102.083 36.2167 102.317 36.6333 102.55 37.0667C102.833 37.5833 103.1 38.0833 103.333 38.6C103.517 38.95 103.683 39.3 103.85 39.6667C104.117 40.2 104.35 40.7333 104.567 41.2667C104.833 41.8667 105.067 42.4667 105.283 43.0833C105.467 43.55 105.633 44.0167 105.783 44.5C105.917 44.8833 106.05 45.2833 106.183 45.7C106.35 46.2333 106.5 46.7667 106.65 47.3C106.75 47.6833 106.85 48.05 106.933 48.4333C107.233 49.6167 107.483 50.8 107.667 52.0167C107.733 52.3667 107.783 52.7167 107.833 53.0833C107.917 53.6167 107.983 54.1667 108.033 54.7C108.067 54.9333 108.1 55.1667 108.117 55.3833C108.167 55.9667 108.217 56.55 108.233 57.15C108.267 57.4 108.283 57.6333 108.283 57.8833C108.317 58.5833 108.333 59.2833 108.333 60Z" stroke="black" stroke-width="2" stroke-miterlimit="10" stroke-linecap="round" stroke-linejoin="round"/>
<path id="Vector_4" d="M57.0617 46.7883L46.8017 54.2417C45.9474 54.8623 45.3116 55.7374 44.9852 56.7415C44.6589 57.7457 44.6588 58.8274 44.985 59.8317L48.905 71.8917C49.2313 72.8959 49.8671 73.771 50.7212 74.3916C51.5754 75.0123 52.6042 75.3466 53.66 75.3467H66.34C67.3962 75.347 68.4253 75.0128 69.2798 74.3921C70.1343 73.7714 70.7703 72.8961 71.0967 71.8917L75.0134 59.8317C75.3396 58.8274 75.3395 57.7457 75.0132 56.7415C74.6868 55.7374 74.0509 54.8623 73.1967 54.2417L62.9384 46.7883C62.0842 46.168 61.0557 45.8338 60 45.8338C58.9444 45.8338 57.9158 46.168 57.0617 46.7883ZM77.1333 16.9667L63.1167 23.8333C62.1334 24.3 61.0667 24.5333 60 24.5167C59.05 24.5 58.1 24.2833 57.2 23.8667L42.85 17.0333C42.15 16.7 41.7834 15.9167 41.9167 15.1833C47.5 12.9 53.6 11.6667 60 11.6667C66.3834 11.6667 72.4834 12.9 78.05 15.1667C78.1834 15.8833 77.8334 16.6333 77.1333 16.9667ZM50.85 107.467C50.0667 107.317 49.2834 107.15 48.5 106.95C48.1834 106.883 47.85 106.8 47.5334 106.717C47.1 106.6 46.6667 106.467 46.2334 106.333C45.85 106.217 45.45 106.1 45.05 105.967C44.6552 105.851 44.2659 105.718 43.8834 105.567L42.9334 105.217C42.75 105.167 42.5834 105.1 42.4 105.017C41.75 104.75 41.1 104.483 40.4667 104.2C39.5967 103.817 38.745 103.4 37.9017 102.965C37.5206 102.767 37.1422 102.564 36.7667 102.355C36.3389 102.122 35.9167 101.881 35.5 101.633C35.0286 101.359 34.5619 101.077 34.1 100.787L33.6967 100.518C28.4757 97.1417 23.9553 92.7893 20.3834 87.7C20.7 87.1333 21.35 86.7833 22.0667 86.8667L37.6334 88.7667C38.7 88.9 39.7 89.2667 40.5667 89.85C41.3834 90.4 42.0834 91.1167 42.6 91.9667L47.3 99.6167L50.95 105.583C51.3167 106.183 51.2667 106.933 50.85 107.467ZM25.2667 52.2833C25.0261 53.2621 24.577 54.1774 23.95 54.9667L14.1167 67.1333C13.65 67.7 12.9 67.9 12.2667 67.6833C11.8667 65.1833 11.6667 62.6167 11.6667 60C11.6667 49.7167 14.8667 40.1833 20.3667 32.35C21.0667 32.4333 21.6834 32.9333 21.8334 33.6667L25.3 49.2167C25.5334 50.2333 25.5167 51.2833 25.2667 52.2833ZM99.5334 87.7833V87.8C92.4667 97.85 81.65 105.083 69.1334 107.467C68.7 106.933 68.65 106.167 69.0167 105.55L77.3334 91.9833C77.869 91.1123 78.5934 90.3726 79.453 89.8188C80.3125 89.265 81.2855 88.9111 82.3 88.7833L97.8167 86.8833C98.55 86.8 99.2167 87.1833 99.5334 87.7833ZM108.333 60C108.333 62.6833 108.117 65.3167 107.683 67.8833C107.379 67.952 107.061 67.9337 106.766 67.8305C106.472 67.7274 106.212 67.5436 106.017 67.3L97.2667 56.4667L96.05 54.9667C95.4057 54.1724 94.9507 53.2419 94.7197 52.2456C94.4887 51.2493 94.4877 50.2134 94.7167 49.2167L96.4834 41.3V41.2833L98.2167 33.4667C98.35 32.8167 98.8667 32.3167 99.5 32.1833C99.5 32.1667 99.5 32.1667 99.5167 32.1833C100.35 33.3333 101.133 34.55 101.833 35.8C102.083 36.2167 102.317 36.6333 102.55 37.0667C102.833 37.5833 103.1 38.0833 103.333 38.6C103.517 38.95 103.683 39.3 103.85 39.6667C104.117 40.2 104.35 40.7333 104.567 41.2667C104.833 41.8667 105.067 42.4667 105.283 43.0833C105.467 43.55 105.633 44.0167 105.783 44.5C105.917 44.8833 106.05 45.2833 106.183 45.7C106.35 46.2333 106.5 46.7667 106.65 47.3C106.75 47.6833 106.85 48.05 106.933 48.4333C107.233 49.6167 107.483 50.8 107.667 52.0167C107.733 52.3667 107.783 52.7167 107.833 53.0833C107.917 53.6167 107.983 54.1667 108.033 54.7C108.067 54.9333 108.1 55.1667 108.117 55.3833C108.167 55.9667 108.217 56.55 108.233 57.15C108.267 57.4 108.283 57.6333 108.283 57.8833C108.317 58.5833 108.333 59.2833 108.333 60Z" fill="black"/>
<path id="Vector_5" d="M60 24.52V45.8333M74.9816 56.65L94.6883 52.2117M69.3183 74.3617L79.3966 89.855M50.6566 74.3433L40.5716 89.855M45.0016 56.6983L25.2733 52.2883" stroke="black" stroke-width="2" stroke-miterlimit="10" stroke-linecap="round" stroke-linejoin="round"/>
</g>
</svg>
